<svg width="21" height="24" viewBox="0 0 21 24" fill="none" xmlns="http://www.w3.org/2000/svg">
<path d="M9.80482 11.4617L0.0895996 22.0059C0.0905121 22.0078 0.090512 22.0106 0.0914244 22.0125C0.389807 23.1574 1.41179 24 2.62539 24C3.11083 24 3.56616 23.8656 3.95671 23.6305L3.98773 23.6118L14.9229 17.1593L9.80482 11.4617Z" fill="#EA4335"/>
<path d="M19.633 9.66619L19.6239 9.65966L14.9027 6.86123L9.58386 11.7013L14.9219 17.1582L19.6175 14.3878C20.4406 13.9324 20.9999 13.045 20.9999 12.0223C20.9999 11.0052 20.4488 10.1225 19.633 9.66619Z" fill="#FBBC04"/>
<path d="M0.0894234 1.99337C0.0310244 2.21359 0 2.445 0 2.68388V21.3164C0 21.5553 0.0310245 21.7867 0.0903359 22.006L10.1386 11.7314L0.0894234 1.99337Z" fill="#4285F4"/>
<path d="M9.87654 11.9999L14.9043 6.85932L3.98189 0.383476C3.58496 0.139932 3.12142 -3.52859e-05 2.62594 -3.52859e-05C1.41233 -3.52859e-05 0.388528 0.844438 0.0901454 1.99031C0.0901454 1.99124 0.0892334 1.99217 0.0892334 1.99311L9.87654 11.9999Z" fill="#34A853"/>
</svg>
